<?xml version="1.0" encoding="UTF-8"?>
<svg xmlns="http://www.w3.org/2000/svg" xmlns:xlink="http://www.w3.org/1999/xlink" width="24px" height="24px" viewBox="0 0 24 24" version="1.1">
<g id="surface421336">
<path style=" stroke:none;fill-rule:evenodd;fill:rgb(78.039216%,78.039216%,78.039216%);fill-opacity:1;" d="M 19 2.5 C 15.847656 2.5 8.152344 2.5 5 2.5 C 4.449219 2.5 4 2.949219 4 3.5 C 4 5.023438 4 5 4 5 L 20 5 C 20 5 20 5.023438 20 3.5 C 20 2.949219 19.550781 2.5 19 2.5 Z M 7 4 C 6.722656 4 6.5 3.777344 6.5 3.5 C 6.5 3.222656 6.722656 3 7 3 C 7.277344 3 7.5 3.222656 7.5 3.5 C 7.5 3.777344 7.277344 4 7 4 Z M 17 4 C 16.722656 4 16.5 3.777344 16.5 3.5 C 16.5 3.222656 16.722656 3 17 3 C 17.277344 3 17.5 3.222656 17.5 3.5 C 17.5 3.777344 17.277344 4 17 4 Z M 17 4 "/>
<path style=" stroke:none;fill-rule:evenodd;fill:rgb(9.803922%,46.27451%,82.352941%);fill-opacity:1;" d="M 22 5.5 C 22.050781 5.210938 21.296875 4.5 21 4.5 C 17.445312 4.5 6.554688 4.5 3 4.5 C 2.5 4.5 1.949219 5.210938 2 5.5 C 2.410156 7.832031 3.5 13 3.5 13 L 20.5 13 C 20.5 13 21.589844 7.832031 22 5.5 Z M 22 5.5 "/>
<path style=" stroke:none;fill-rule:evenodd;fill:rgb(11.764706%,53.333333%,89.803922%);fill-opacity:1;" d="M 20.5 13 L 3.5 13 C 3.5 13 2.410156 18.167969 2 20.5 C 2 21.074219 2.394531 21.5 3 21.5 C 6.554688 21.5 17.445312 21.5 21 21.5 C 21.296875 21.5 22 21.25 22 20.5 C 21.589844 18.167969 20.5 13 20.5 13 Z M 20.5 13 "/>
<path style=" stroke:none;fill-rule:evenodd;fill:rgb(98.039216%,98.039216%,98.039216%);fill-opacity:1;" d="M 10.265625 13 C 10.757812 13.164062 11.109375 13.425781 11.320312 13.777344 C 11.535156 14.144531 11.644531 14.554688 11.644531 15.007812 C 11.644531 15.796875 11.386719 16.421875 10.867188 16.875 C 10.347656 17.328125 9.683594 17.554688 8.878906 17.554688 C 8.085938 17.554688 7.433594 17.339844 6.914062 16.914062 C 6.394531 16.484375 6.144531 15.90625 6.164062 15.175781 L 6.183594 15.136719 L 7.304688 15.136719 C 7.304688 15.59375 7.445312 15.960938 7.722656 16.230469 C 8.003906 16.5 8.390625 16.636719 8.878906 16.636719 C 9.375 16.636719 9.765625 16.5 10.046875 16.230469 C 10.328125 15.960938 10.46875 15.558594 10.46875 15.03125 C 10.46875 14.496094 10.34375 14.097656 10.09375 13.84375 C 9.84375 13.589844 9.449219 13.464844 8.90625 13.464844 L 7.882812 13.464844 L 7.882812 13 Z M 15.820312 13 L 16.992188 13 L 16.992188 17.429688 L 15.820312 17.429688 Z M 15.820312 13 "/>
<path style=" stroke:none;fill-rule:evenodd;fill:rgb(87.843137%,87.843137%,87.843137%);fill-opacity:1;" d="M 7.363281 11.019531 L 6.238281 11.019531 L 6.222656 10.980469 C 6.203125 10.324219 6.441406 9.769531 6.9375 9.308594 C 7.433594 8.851562 8.078125 8.621094 8.878906 8.621094 C 9.679688 8.621094 10.320312 8.835938 10.796875 9.261719 C 11.273438 9.691406 11.511719 10.296875 11.511719 11.089844 C 11.511719 11.449219 11.40625 11.804688 11.1875 12.160156 C 10.972656 12.515625 10.648438 12.785156 10.214844 12.972656 L 10.265625 13 L 7.882812 13 L 7.882812 12.542969 L 8.90625 12.542969 C 9.429688 12.542969 9.796875 12.414062 10.011719 12.152344 C 10.230469 11.894531 10.339844 11.53125 10.339844 11.066406 C 10.339844 10.570312 10.214844 10.191406 9.96875 9.933594 C 9.722656 9.675781 9.359375 9.546875 8.878906 9.546875 C 8.421875 9.546875 8.054688 9.679688 7.777344 9.949219 C 7.511719 10.207031 7.371094 10.550781 7.363281 11.019531 Z M 16.992188 13 L 15.820312 13 L 15.820312 9.890625 L 14.042969 9.914062 L 14.042969 9.066406 L 16.992188 8.746094 Z M 16.992188 13 "/>
<path style=" stroke:none;fill-rule:evenodd;fill:rgb(9.803922%,46.27451%,82.352941%);fill-opacity:1;" d="M 3 4.5 C 2.28125 4.5 1.949219 5.210938 2 5.5 C 2.410156 7.832031 3.5 13 3.5 13 M 20.5 13 C 20.5 13 21.589844 7.832031 22 5.5 C 22 4.6875 21.296875 4.5 21 4.5 "/>
</g>
</svg>
